ffmpeg started on 2025-05-12 at 13:11:44
Report written to "D:\Convert\FFMetrics\reports\ssim_report-6.txt"
Log level: 32
Command line:
ffmpeg -hide_banner -nostdin -i "G:\\\xc0\xed\xe8\xec\xe5\\\xce\xed\xe3\xee\xe8\xed\xe3\xe8\\!_35_\xcb\xe5\xf2\xee_2024\\DreamCast\\\xc0\xeb\xff \xe8\xed\xee\xe3\xe4\xe0 \xea\xee\xea\xe5\xf2\xed\xe8\xf7\xe0\xe5\xf2 \xf1\xee \xec\xed\xee\xe9 \xef\xee-\xf0\xf3\xf1\xf1\xea\xe8\\[DC] Roshidere - 06_Telegram_HEVC.mkv" -i "G:\\\xc0\xed\xe8\xec\xe5\\\xce\xed\xe3\xee\xe8\xed\xe3\xe8\\!_35_\xcb\xe5\xf2\xee_2024\\DreamCast\\\xc0\xeb\xff \xe8\xed\xee\xe3\xe4\xe0 \xea\xee\xea\xe5\xf2\xed\xe8\xf7\xe0\xe5\xf2 \xf1\xee \xec\xed\xee\xe9 \xef\xee-\xf0\xf3\xf1\xf1\xea\xe8\\[DC] Roshidere - 06_Telegram.mp4" -lavfi "[0:v]settb=AVTB,setpts=PTS-STARTPTS,format=pix_fmts=yuv420p10,fps=24000/1001,scale=1920:1080:flags=bicubic[main];[1:v]settb=AVTB,setpts=PTS-STARTPTS,format=pix_fmts=yuv420p,fps=24000/1001,scale=1920:1080:flags=bicubic[ref];[main][ref]ssim=eof_action=endall:stats_file='D\\:/Convert/FFMetrics/logs/ssim_logfile-6.txt'" -f null -
Input #0, matroska,webm, from 'G:\Аниме\Онгоинги\!_35_Лето_2024\DreamCast\Аля иногда кокетничает со мной по-русски\[DC] Roshidere - 06_Telegram_HEVC.mkv':
  Metadata:
    COMPATIBLE_BRANDS: isomiso2avc1mp41
    MAJOR_BRAND     : isom
    MINOR_VERSION   : 512
    ENCODER         : Lavf61.7.100
  Duration: 00:23:46.73, start: -0.021000, bitrate: 1054 kb/s
  Stream #0:0: Video: hevc (Main 10), yuv420p10le(tv, bt709, progressive), 1920x1080 [SAR 1:1 DAR 16:9], 23.98 fps, 23.98 tbr, 1k tbn (default)
      Metadata:
        HANDLER_NAME    : VideoHandler
        VENDOR_ID       : [0][0][0][0]
        ENCODER         : Lavc61.19.100 libx265
        BPS             : 857636
        DURATION        : 00:23:46.508708333
        NUMBER_OF_FRAMES: 34202
        NUMBER_OF_BYTES : 152928207
        _STATISTICS_WRITING_APP: mkvpropedit v66.0.0 ('Josie') 64-bit
        _STATISTICS_WRITING_DATE_UTC: 2025-05-06 12:16:48
        _STATISTICS_TAGS: BPS DURATION NUMBER_OF_FRAMES NUMBER_OF_BYTES
  Stream #0:1: Audio: aac (LC), 48000 Hz, stereo, fltp (default)
      Metadata:
        HANDLER_NAME    : SoundHandler
        VENDOR_ID       : [0][0][0][0]
        ENCODER         : Lavc61.19.100 aac
        BPS             : 193349
        DURATION        : 00:23:46.730000000
        NUMBER_OF_FRAMES: 66879
        NUMBER_OF_BYTES : 34482120
        _STATISTICS_WRITING_APP: mkvpropedit v66.0.0 ('Josie') 64-bit
        _STATISTICS_WRITING_DATE_UTC: 2025-05-06 12:16:48
        _STATISTICS_TAGS: BPS DURATION NUMBER_OF_FRAMES NUMBER_OF_BYTES
Input #1, mov,mp4,m4a,3gp,3g2,mj2, from 'G:\Аниме\Онгоинги\!_35_Лето_2024\DreamCast\Аля иногда кокетничает со мной по-русски\[DC] Roshidere - 06_Telegram.mp4':
  Metadata:
    major_brand     : isom
    minor_version   : 512
    compatible_brands: isomiso2avc1mp41
    encoder         : Lavf61.1.100
  Duration: 00:23:46.68, start: 0.000000, bitrate: 3714 kb/s
  Stream #1:0[0x1](und): Video: h264 (High) (avc1 / 0x31637661), yuv420p(tv, bt709, progressive), 1920x1080 [SAR 1:1 DAR 16:9], 3567 kb/s, 23.98 fps, 23.98 tbr, 24k tbn (default)
      Metadata:
        handler_name    : VideoHandler
        vendor_id       : [0][0][0][0]
        encoder         : Lavc61.3.100 h264_qsv
  Stream #1:1[0x2](und): Audio: aac (HE-AACv2) (mp4a / 0x6134706D), 48000 Hz, stereo, fltp, 144 kb/s (default)
      Metadata:
        handler_name    : SoundHandler
        vendor_id       : [0][0][0][0]
Stream mapping:
  Stream #0:0 (hevc) -> settb:default
  Stream #1:0 (h264) -> settb:default
  ssim:default -> Stream #0:0 (wrapped_avframe)
  Stream #0:1 -> #0:1 (aac (native) -> pcm_s16le (native))
Output #0, null, to 'pipe:':
  Metadata:
    COMPATIBLE_BRANDS: isomiso2avc1mp41
    MAJOR_BRAND     : isom
    MINOR_VERSION   : 512
    encoder         : Lavf61.7.100
  Stream #0:0: Video: wrapped_avframe, yuv420p10le(tv, bt709, progressive), 1920x1080 [SAR 1:1 DAR 16:9], q=2-31, 200 kb/s, 23.98 fps, 23.98 tbn
      Metadata:
        encoder         : Lavc61.19.100 wrapped_avframe
  Stream #0:1: Audio: pcm_s16le, 48000 Hz, stereo, s16, 1536 kb/s (default)
      Metadata:
        HANDLER_NAME    : SoundHandler
        VENDOR_ID       : [0][0][0][0]
        _STATISTICS_TAGS: BPS DURATION NUMBER_OF_FRAMES NUMBER_OF_BYTES
        BPS             : 193349
        DURATION        : 00:23:46.730000000
        NUMBER_OF_FRAMES: 66879
        NUMBER_OF_BYTES : 34482120
        _STATISTICS_WRITING_APP: mkvpropedit v66.0.0 ('Josie') 64-bit
        _STATISTICS_WRITING_DATE_UTC: 2025-05-06 12:16:48
        encoder         : Lavc61.19.100 pcm_s16le
frame=  178 fps=0.0 q=-0.0 size=N/A time=00:00:07.42 bitrate=N/A speed=14.3x    frame=  413 fps=403 q=-0.0 size=N/A time=00:00:17.22 bitrate=N/A speed=16.8x    frame=  695 fps=449 q=-0.0 size=N/A time=00:00:28.98 bitrate=N/A speed=18.7x    frame=  972 fps=473 q=-0.0 size=N/A time=00:00:40.54 bitrate=N/A speed=19.7x    frame= 1257 fps=487 q=-0.0 size=N/A time=00:00:52.42 bitrate=N/A speed=20.3x    frame= 1505 fps=488 q=-0.0 size=N/A time=00:01:02.77 bitrate=N/A speed=20.3x    frame= 1756 fps=486 q=-0.0 size=N/A time=00:01:13.23 bitrate=N/A speed=20.3x    frame= 1989 fps=482 q=-0.0 size=N/A time=00:01:22.95 bitrate=N/A speed=20.1x    frame= 2168 fps=467 q=-0.0 size=N/A time=00:01:30.42 bitrate=N/A speed=19.5x    frame= 2398 fps=465 q=-0.0 size=N/A time=00:01:40.01 bitrate=N/A speed=19.4x    frame= 2585 fps=456 q=-0.0 size=N/A time=00:01:47.81 bitrate=N/A speed=  19x    frame= 2784 fps=450 q=-0.0 size=N/A time=00:01:56.11 bitrate=N/A speed=18.8x    frame= 3018 fps=451 q=-0.0 size=N/A time=00:02:05.87 bitrate=N/A speed=18.8x    frame= 3194 fps=442 q=-0.0 size=N/A time=00:02:13.21 bitrate=N/A speed=18.5x    frame= 3353 fps=434 q=-0.0 size=N/A time=00:02:19.84 bitrate=N/A speed=18.1x    frame= 3545 fps=430 q=-0.0 size=N/A time=00:02:27.85 bitrate=N/A speed=17.9x    frame= 3743 fps=427 q=-0.0 size=N/A time=00:02:36.11 bitrate=N/A speed=17.8x    frame= 3958 fps=427 q=-0.0 size=N/A time=00:02:45.08 bitrate=N/A speed=17.8x    frame= 4201 fps=429 q=-0.0 size=N/A time=00:02:55.21 bitrate=N/A speed=17.9x    frame= 4451 fps=432 q=-0.0 size=N/A time=00:03:05.64 bitrate=N/A speed=  18x    frame= 4730 fps=437 q=-0.0 size=N/A time=00:03:17.28 bitrate=N/A speed=18.2x    frame= 4978 fps=439 q=-0.0 size=N/A time=00:03:27.62 bitrate=N/A speed=18.3x    frame= 5257 fps=443 q=-0.0 size=N/A time=00:03:39.26 bitrate=N/A speed=18.5x    frame= 5530 fps=446 q=-0.0 size=N/A time=00:03:50.64 bitrate=N/A speed=18.6x    frame= 5805 fps=450 q=-0.0 size=N/A time=00:04:02.11 bitrate=N/A speed=18.8x    frame= 6073 fps=452 q=-0.0 size=N/A time=00:04:13.29 bitrate=N/A speed=18.9x    frame= 6325 fps=454 q=-0.0 size=N/A time=00:04:23.80 bitrate=N/A speed=18.9x    frame= 6589 fps=456 q=-0.0 size=N/A time=00:04:34.81 bitrate=N/A speed=  19x    frame= 6858 fps=458 q=-0.0 size=N/A time=00:04:46.03 bitrate=N/A speed=19.1x    frame= 7111 fps=459 q=-0.0 size=N/A time=00:04:56.58 bitrate=N/A speed=19.1x    frame= 7361 fps=460 q=-0.0 size=N/A time=00:05:07.01 bitrate=N/A speed=19.2x    frame= 7639 fps=462 q=-0.0 size=N/A time=00:05:18.60 bitrate=N/A speed=19.3x    frame= 7914 fps=465 q=-0.0 size=N/A time=00:05:30.07 bitrate=N/A speed=19.4x    frame= 8163 fps=465 q=-0.0 size=N/A time=00:05:40.50 bitrate=N/A speed=19.4x    frame= 8442 fps=467 q=-0.0 size=N/A time=00:05:52.10 bitrate=N/A speed=19.5x    frame= 8703 fps=469 q=-0.0 size=N/A time=00:06:02.98 bitrate=N/A speed=19.5x    frame= 8956 fps=469 q=-0.0 size=N/A time=00:06:13.53 bitrate=N/A speed=19.6x    frame= 9224 fps=471 q=-0.0 size=N/A time=00:06:24.71 bitrate=N/A speed=19.6x    frame= 9471 fps=471 q=-0.0 size=N/A time=00:06:35.01 bitrate=N/A speed=19.6x    frame= 9732 fps=471 q=-0.0 size=N/A time=00:06:45.90 bitrate=N/A speed=19.7x    frame= 9995 fps=472 q=-0.0 size=N/A time=00:06:56.87 bitrate=N/A speed=19.7x    frame=10250 fps=473 q=-0.0 size=N/A time=00:07:07.51 bitrate=N/A speed=19.7x    frame=10518 fps=474 q=-0.0 size=N/A time=00:07:18.68 bitrate=N/A speed=19.8x    frame=10767 fps=474 q=-0.0 size=N/A time=00:07:29.07 bitrate=N/A speed=19.8x    frame=11041 fps=475 q=-0.0 size=N/A time=00:07:40.50 bitrate=N/A speed=19.8x    frame=11318 fps=477 q=-0.0 size=N/A time=00:07:52.05 bitrate=N/A speed=19.9x    frame=11568 fps=477 q=-0.0 size=N/A time=00:08:02.48 bitrate=N/A speed=19.9x    frame=11823 fps=477 q=-0.0 size=N/A time=00:08:13.11 bitrate=N/A speed=19.9x    frame=12095 fps=478 q=-0.0 size=N/A time=00:08:24.46 bitrate=N/A speed=19.9x    frame=12355 fps=479 q=-0.0 size=N/A time=00:08:35.30 bitrate=N/A speed=  20x    frame=12610 fps=479 q=-0.0 size=N/A time=00:08:45.94 bitrate=N/A speed=  20x    frame=12846 fps=479 q=-0.0 size=N/A time=00:08:55.78 bitrate=N/A speed=  20x    frame=13113 fps=479 q=-0.0 size=N/A time=00:09:06.92 bitrate=N/A speed=  20x    frame=13363 fps=480 q=-0.0 size=N/A time=00:09:17.34 bitrate=N/A speed=  20x    frame=13624 fps=480 q=-0.0 size=N/A time=00:09:28.23 bitrate=N/A speed=  20x    frame=13866 fps=480 q=-0.0 size=N/A time=00:09:38.32 bitrate=N/A speed=  20x    frame=14132 fps=480 q=-0.0 size=N/A time=00:09:49.42 bitrate=N/A speed=  20x    frame=14402 fps=481 q=-0.0 size=N/A time=00:10:00.68 bitrate=N/A speed=20.1x    frame=14656 fps=481 q=-0.0 size=N/A time=00:10:11.27 bitrate=N/A speed=20.1x    frame=14919 fps=482 q=-0.0 size=N/A time=00:10:22.24 bitrate=N/A speed=20.1x    frame=15181 fps=482 q=-0.0 size=N/A time=00:10:33.17 bitrate=N/A speed=20.1x    frame=15431 fps=482 q=-0.0 size=N/A time=00:10:43.60 bitrate=N/A speed=20.1x    frame=15712 fps=483 q=-0.0 size=N/A time=00:10:55.32 bitrate=N/A speed=20.2x    frame=15950 fps=483 q=-0.0 size=N/A time=00:11:05.24 bitrate=N/A speed=20.1x    frame=16198 fps=483 q=-0.0 size=N/A time=00:11:15.59 bitrate=N/A speed=20.1x    frame=16467 fps=483 q=-0.0 size=N/A time=00:11:26.81 bitrate=N/A speed=20.2x    frame=16716 fps=483 q=-0.0 size=N/A time=00:11:37.19 bitrate=N/A speed=20.2x    frame=16988 fps=484 q=-0.0 size=N/A time=00:11:48.54 bitrate=N/A speed=20.2x    frame=17230 fps=484 q=-0.0 size=N/A time=00:11:58.63 bitrate=N/A speed=20.2x    frame=17482 fps=484 q=-0.0 size=N/A time=00:12:09.14 bitrate=N/A speed=20.2x    frame=17763 fps=485 q=-0.0 size=N/A time=00:12:20.86 bitrate=N/A speed=20.2x    frame=18037 fps=485 q=-0.0 size=N/A time=00:12:32.29 bitrate=N/A speed=20.2x    frame=18292 fps=485 q=-0.0 size=N/A time=00:12:42.92 bitrate=N/A speed=20.2x    frame=18541 fps=485 q=-0.0 size=N/A time=00:12:53.31 bitrate=N/A speed=20.2x    frame=18813 fps=486 q=-0.0 size=N/A time=00:13:04.65 bitrate=N/A speed=20.3x    frame=19088 fps=487 q=-0.0 size=N/A time=00:13:16.12 bitrate=N/A speed=20.3x    frame=19362 fps=487 q=-0.0 size=N/A time=00:13:27.55 bitrate=N/A speed=20.3x    frame=19634 fps=488 q=-0.0 size=N/A time=00:13:38.90 bitrate=N/A speed=20.3x    frame=19916 fps=488 q=-0.0 size=N/A time=00:13:50.66 bitrate=N/A speed=20.4x    frame=20193 fps=489 q=-0.0 size=N/A time=00:14:02.21 bitrate=N/A speed=20.4x    frame=20441 fps=489 q=-0.0 size=N/A time=00:14:12.56 bitrate=N/A speed=20.4x    frame=20698 fps=489 q=-0.0 size=N/A time=00:14:23.27 bitrate=N/A speed=20.4x    frame=20970 fps=489 q=-0.0 size=N/A time=00:14:34.62 bitrate=N/A speed=20.4x    frame=21228 fps=490 q=-0.0 size=N/A time=00:14:45.38 bitrate=N/A speed=20.4x    frame=21472 fps=489 q=-0.0 size=N/A time=00:14:55.56 bitrate=N/A speed=20.4x    frame=21729 fps=490 q=-0.0 size=N/A time=00:15:06.28 bitrate=N/A speed=20.4x    frame=22007 fps=490 q=-0.0 size=N/A time=00:15:17.87 bitrate=N/A speed=20.4x    frame=22247 fps=490 q=-0.0 size=N/A time=00:15:27.88 bitrate=N/A speed=20.4x    frame=22469 fps=489 q=-0.0 size=N/A time=00:15:37.14 bitrate=N/A speed=20.4x    frame=22724 fps=489 q=-0.0 size=N/A time=00:15:47.78 bitrate=N/A speed=20.4x    frame=22990 fps=489 q=-0.0 size=N/A time=00:15:58.87 bitrate=N/A speed=20.4x    frame=23273 fps=490 q=-0.0 size=N/A time=00:16:10.67 bitrate=N/A speed=20.4x    frame=23520 fps=490 q=-0.0 size=N/A time=00:16:20.98 bitrate=N/A speed=20.4x    frame=23748 fps=489 q=-0.0 size=N/A time=00:16:30.48 bitrate=N/A speed=20.4x    frame=23964 fps=489 q=-0.0 size=N/A time=00:16:39.49 bitrate=N/A speed=20.4x    frame=24209 fps=489 q=-0.0 size=N/A time=00:16:49.71 bitrate=N/A speed=20.4x    frame=24420 fps=488 q=-0.0 size=N/A time=00:16:58.51 bitrate=N/A speed=20.3x    frame=24701 fps=488 q=-0.0 size=N/A time=00:17:10.23 bitrate=N/A speed=20.4x    frame=24966 fps=489 q=-0.0 size=N/A time=00:17:21.29 bitrate=N/A speed=20.4x    frame=25221 fps=489 q=-0.0 size=N/A time=00:17:31.92 bitrate=N/A speed=20.4x    frame=25479 fps=489 q=-0.0 size=N/A time=00:17:42.68 bitrate=N/A speed=20.4x    frame=25757 fps=489 q=-0.0 size=N/A time=00:17:54.28 bitrate=N/A speed=20.4x    frame=26015 fps=489 q=-0.0 size=N/A time=00:18:05.04 bitrate=N/A speed=20.4x    frame=26268 fps=489 q=-0.0 size=N/A time=00:18:15.59 bitrate=N/A speed=20.4x    frame=26520 fps=489 q=-0.0 size=N/A time=00:18:26.10 bitrate=N/A speed=20.4x    frame=26772 fps=489 q=-0.0 size=N/A time=00:18:36.61 bitrate=N/A speed=20.4x    frame=27042 fps=490 q=-0.0 size=N/A time=00:18:47.87 bitrate=N/A speed=20.4x    frame=27304 fps=490 q=-0.0 size=N/A time=00:18:58.80 bitrate=N/A speed=20.4x    frame=27571 fps=490 q=-0.0 size=N/A time=00:19:09.94 bitrate=N/A speed=20.4x    frame=27853 fps=491 q=-0.0 size=N/A time=00:19:21.70 bitrate=N/A speed=20.5x    frame=28104 fps=491 q=-0.0 size=N/A time=00:19:32.17 bitrate=N/A speed=20.5x    frame=28340 fps=490 q=-0.0 size=N/A time=00:19:42.01 bitrate=N/A speed=20.5x    frame=28615 fps=491 q=-0.0 size=N/A time=00:19:53.48 bitrate=N/A speed=20.5x    frame=28877 fps=491 q=-0.0 size=N/A time=00:20:04.41 bitrate=N/A speed=20.5x    frame=29110 fps=490 q=-0.0 size=N/A time=00:20:14.12 bitrate=N/A speed=20.5x    frame=29347 fps=490 q=-0.0 size=N/A time=00:20:24.01 bitrate=N/A speed=20.4x    frame=29601 fps=490 q=-0.0 size=N/A time=00:20:34.60 bitrate=N/A speed=20.4x    frame=29847 fps=490 q=-0.0 size=N/A time=00:20:44.86 bitrate=N/A speed=20.4x    frame=30087 fps=490 q=-0.0 size=N/A time=00:20:54.87 bitrate=N/A speed=20.4x    frame=30337 fps=490 q=-0.0 size=N/A time=00:21:05.30 bitrate=N/A speed=20.4x    frame=30582 fps=490 q=-0.0 size=N/A time=00:21:15.52 bitrate=N/A speed=20.4x    frame=30818 fps=489 q=-0.0 size=N/A time=00:21:25.36 bitrate=N/A speed=20.4x    frame=31086 fps=490 q=-0.0 size=N/A time=00:21:36.54 bitrate=N/A speed=20.4x    frame=31341 fps=490 q=-0.0 size=N/A time=00:21:47.18 bitrate=N/A speed=20.4x    frame=31594 fps=490 q=-0.0 size=N/A time=00:21:57.73 bitrate=N/A speed=20.4x    frame=31854 fps=490 q=-0.0 size=N/A time=00:22:08.57 bitrate=N/A speed=20.4x    frame=32075 fps=489 q=-0.0 size=N/A time=00:22:17.79 bitrate=N/A speed=20.4x    frame=32226 fps=488 q=-0.0 size=N/A time=00:22:24.09 bitrate=N/A speed=20.3x    frame=32376 fps=486 q=-0.0 size=N/A time=00:22:30.34 bitrate=N/A speed=20.3x    frame=32532 fps=485 q=-0.0 size=N/A time=00:22:36.85 bitrate=N/A speed=20.2x    frame=32692 fps=484 q=-0.0 size=N/A time=00:22:43.52 bitrate=N/A speed=20.2x    frame=32834 fps=482 q=-0.0 size=N/A time=00:22:49.45 bitrate=N/A speed=20.1x    frame=32975 fps=480 q=-0.0 size=N/A time=00:22:55.33 bitrate=N/A speed=  20x    frame=33173 fps=480 q=-0.0 size=N/A time=00:23:03.59 bitrate=N/A speed=  20x    frame=33379 fps=479 q=-0.0 size=N/A time=00:23:12.18 bitrate=N/A speed=  20x    frame=33545 fps=478 q=-0.0 size=N/A time=00:23:19.10 bitrate=N/A speed=19.9x    frame=33735 fps=477 q=-0.0 size=N/A time=00:23:27.03 bitrate=N/A speed=19.9x    frame=33889 fps=476 q=-0.0 size=N/A time=00:23:33.45 bitrate=N/A speed=19.8x    frame=34042 fps=475 q=-0.0 size=N/A time=00:23:39.83 bitrate=N/A speed=19.8x    frame=34193 fps=473 q=-0.0 size=N/A time=00:23:46.13 bitrate=N/A speed=19.7x    [Parsed_ssim_10 @ 0000017c678bcc40] SSIM Y:0.995736 (23.701387) U:0.993912 (22.155490) V:0.993291 (21.733123) All:0.995024 (23.031362)
[out#0/null @ 0000017c677645c0] video:14696KiB audio:267516KiB subtitle:0KiB other streams:0KiB global headers:0KiB muxing overhead: unknown
frame=34202 fps=473 q=-0.0 Lsize=N/A time=00:23:46.50 bitrate=N/A speed=19.7x    
